# xmcd
#
# Track frame offsets:
#	150
#	19455
#	34846
#	49239
#	71971
#	90200
#	107590
#	123495
#	146623
#	161849
#	189194
#
# Disc length: 2814 seconds
#
# Revision: 0
# Processed by: cddbd v1.5.2PL0 Copyright (c) Steve Scherf et al.
# Submitted via: EasyCDDAExtractor 10.0.6.1
#
DISCID=970afc0b
DTITLE=BlueGrace - Passin' Thru
DYEAR=2003
DGENRE=Bluegrass
TTITLE0=Passin' Thru~Lonesome Reuben
TTITLE1=Dancing with the Angels
TTITLE2=Rock in a Weary Land
TTITLE3=The Road
TTITLE4=Learn to Give
TTITLE5=It's Only Love
TTITLE6=Father God
TTITLE7=In the Slipstream
TTITLE8=If You Had Only Seen Me Then
TTITLE9=Ain't No Grave
TTITLE10=Foggy Mountain Breakdown
EXTD=
EXTT0=
EXTT1=
EXTT2=
EXTT3=
EXTT4=
EXTT5=
EXTT6=
EXTT7=
EXTT8=
EXTT9=
EXTT10=
PLAYORDER=
